<svg xmlns="http://www.w3.org/2000/svg" viewBox="0 0 24 30" x="0px" y="0px"><path d="m21.5,14v4.6665c0,.96777-.31934,1.92676-.89941,2.7002l-.7002.93311c-.09863.13135-.24902.2002-.40039.2002-.10449,0-.20996-.03271-.2998-.1001-.2207-.16553-.26562-.479-.10059-.69971l.7002-.93359c.45215-.60156.7002-1.34717.7002-2.1001v-4.6665c0-.82715-.67285-1.5-1.5-1.5h-5c-.27637,0-.5-.22363-.5-.5v-5.89307c0-.78906-.53467-1.4707-1.24414-1.58594-.44824-.07129-.88574.04639-1.22705.33594-.33594.28564-.52881.70264-.52881,1.14307v10c0,.27637-.22363.5-.5.5s-.5-.22363-.5-.5v-1.5h-.5c-.82715,0-1.5.67285-1.5,1.5v2.6665c0,.75195.24854,1.49805.69971,2.1001l.7002.93359c.16602.2207.12109.53418-.1001.69971-.22168.16553-.53467.12061-.69971-.1001l-.7002-.93359c-.58057-.77393-.8999-1.73291-.8999-2.69971v-2.6665c0-1.37842,1.12158-2.5,2.5-2.5h.5v-7.5c0-.73438.32129-1.42871.88086-1.90479.56055-.47607,1.30322-.67676,2.03516-.56152,1.18848.19287,2.08398,1.29932,2.08398,2.57324v5.39307h4.5c1.37891,0,2.5,1.12158,2.5,2.5Zm.85352-9.35352l-3-3c-.19531-.19531-.51172-.19531-.70703,0s-.19531.51172,0,.70703l2.14648,2.14648h-4.79297c-.27637,0-.5.22363-.5.5s.22363.5.5.5h4.79297l-2.14648,2.14648c-.19531.19531-.19531.51172,0,.70703.09766.09766.22559.14648.35352.14648s.25586-.04883.35352-.14648l3-3c.19531-.19531.19531-.51172,0-.70703Zm-19.14648.85352h4.79297c.27637,0,.5-.22363.5-.5s-.22363-.5-.5-.5H3.20703l2.14648-2.14648c.19531-.19531.19531-.51172,0-.70703s-.51172-.19531-.70703,0l-3,3c-.19531.19531-.19531.51172,0,.70703l3,3c.09766.09766.22559.14648.35352.14648s.25586-.04883.35352-.14648c.19531-.19531.19531-.51172,0-.70703l-2.14648-2.14648Z"/><text x="0" y="39" fill="#000000" font-size="5px" font-weight="bold" font-family="'Helvetica Neue', Helvetica, Arial-Unicode, Arial, Sans-serif">Created by Royyan Wijaya</text><text x="0" y="44" fill="#000000" font-size="5px" font-weight="bold" font-family="'Helvetica Neue', Helvetica, Arial-Unicode, Arial, Sans-serif">from the Noun Project</text></svg>