<svg width="25" height="8" viewBox="0 0 25 8" fill="none" xmlns="http://www.w3.org/2000/svg">
<path d="M0 4.25752C0 4.29865 1.49012e-07 4.29865 0.0390169 4.33977C0.0390169 4.3809 0.0390171 4.3809 0.0780339 4.42202C0.0780339 4.46315 0.11705 4.46315 0.11705 4.50428C0.11705 4.50428 0.11705 4.5454 0.156067 4.5454L0.195084 4.58653L0.234101 4.62766L3.16036 7.71212C3.31643 7.87662 3.51151 7.95887 3.70659 7.95887C3.90168 7.95887 4.09676 7.87662 4.25283 7.71212C4.56496 7.38311 4.56496 6.88959 4.25283 6.56059L2.65314 4.91554H22.2786L20.6789 6.60171C20.3668 6.93072 20.3668 7.42423 20.6789 7.75324C20.835 7.91775 21.03 8 21.2251 8C21.4202 8 21.6153 7.91775 21.7714 7.75324L24.6976 4.66878C24.7366 4.62766 24.7757 4.58653 24.8147 4.5454C24.8147 4.5454 24.8537 4.50428 24.8537 4.46315C24.8537 4.42202 24.8927 4.42202 24.8927 4.3809C24.8927 4.33977 24.8927 4.33977 24.9317 4.29865C24.9317 4.25752 24.9317 4.25752 24.9707 4.21639C25.0098 4.09301 25.0098 4.01076 24.9707 3.88738C24.9707 3.84626 24.9707 3.84626 24.9317 3.80513C24.9317 3.76401 24.9317 3.76401 24.8927 3.72288C24.8927 3.68175 24.8537 3.68175 24.8537 3.64063C24.8537 3.5995 24.8147 3.5995 24.8147 3.55838C24.7757 3.51725 24.7366 3.47612 24.6976 3.435L21.7714 0.350535C21.4592 0.0215253 20.991 0.0215253 20.6789 0.350535C20.3668 0.679544 20.3668 1.17306 20.6789 1.50207L22.2786 3.18824H2.57511L4.1748 1.37869C4.48693 1.04968 4.44791 0.515038 4.13578 0.227155C3.82364 -0.101854 3.31643 -0.0607273 3.04331 0.268282L0.195084 3.47612L0.156067 3.51725L0.11705 3.55838C0.11705 3.5995 0.0780339 3.5995 0.0780339 3.64063L0.0390169 3.68175C0.0390169 3.72288 0.0390168 3.72288 0 3.76401C0 3.80513 0 3.80513 0 3.84626C0 3.88738 0 3.88738 0 3.92851C0 3.96964 0 3.96964 0 4.01076C0 4.05189 0 4.05189 0 4.09302C0 4.21639 0 4.21639 0 4.25752Z" fill="black"/>
</svg>
