<svg width="91" height="36" viewBox="0 0 91 36" fill="none" xmlns="http://www.w3.org/2000/svg">
<path d="M70.1875 32.6875C70.1875 31.9875 70.4875 31.2875 70.9875 30.7875L85.4875 16.2875C86.5875 15.1875 88.2875 15.1875 89.3875 16.2875C90.4875 17.3875 90.4875 19.0875 89.3875 20.1875L74.8875 34.6875C73.7875 35.7875 72.0875 35.7875 70.9875 34.6875C70.4875 34.0875 70.1875 33.3875 70.1875 32.6875Z" fill="black"/>
<path d="M34.3875 18.1875C34.3875 12.3875 39.0875 7.78748 44.7875 7.78748C50.5875 7.78748 55.1875 12.4875 55.1875 18.1875C55.1875 23.8875 50.4875 28.5875 44.7875 28.5875C39.0875 28.6875 34.3875 23.9875 34.3875 18.1875ZM49.7875 18.1875C49.7875 15.3875 47.5875 13.1875 44.7875 13.1875C41.9875 13.1875 39.7875 15.3875 39.7875 18.1875C39.7875 20.9875 41.9875 23.1875 44.7875 23.1875C47.5875 23.1875 49.7875 20.9875 49.7875 18.1875Z" fill="black"/>
<path d="M0.687496 18.1875C0.687496 17.4875 0.987499 16.7875 1.4875 16.2875L15.9875 1.78749C17.0875 0.687494 18.7875 0.687494 19.8875 1.78749C20.9875 2.88749 20.9875 4.5875 19.8875 5.6875L5.38749 20.1875C4.28749 21.2875 2.5875 21.2875 1.4875 20.1875C0.987499 19.5875 0.687496 18.8875 0.687496 18.1875Z" fill="black"/>
<path d="M70.1875 3.6875C70.1875 2.9875 70.4875 2.28749 70.9875 1.78749C72.0875 0.687494 73.7875 0.687494 74.8875 1.78749L89.2875 16.2875C90.3875 17.3875 90.3875 19.0875 89.2875 20.1875C88.1875 21.2875 86.4875 21.2875 85.3875 20.1875L70.9875 5.6875C70.4875 5.0875 70.1875 4.3875 70.1875 3.6875Z" fill="black"/>
<path d="M0.687496 18.1875C0.687496 17.4875 0.987499 16.7875 1.4875 16.2875C2.5875 15.1875 4.28749 15.1875 5.38749 16.2875L19.8875 30.7875C20.9875 31.8875 20.9875 33.5875 19.8875 34.6875C18.7875 35.7875 17.0875 35.7875 15.9875 34.6875L1.4875 20.0875C0.987499 19.5875 0.687496 18.8875 0.687496 18.1875Z" fill="black"/>
</svg>
