<svg width="24" height="44" viewBox="0 0 24 44" fill="none" xmlns="http://www.w3.org/2000/svg">
<path d="M1.29 18.3H22.71C22.8933 18.3015 23.0735 18.2527 23.2308 18.1588C23.3882 18.0648 23.5168 17.9294 23.6024 17.7674C23.6881 17.6054 23.7276 17.4229 23.7166 17.24C23.7056 17.057 23.6445 16.8806 23.54 16.73L12.82 1.33001C12.7278 1.19798 12.6052 1.09016 12.4624 1.01571C12.3196 0.941253 12.161 0.902374 12 0.902374C11.839 0.902374 11.6804 0.941253 11.5376 1.01571C11.3948 1.09016 11.2722 1.19798 11.18 1.33001L0.459996 16.73C0.355517 16.8806 0.294435 17.057 0.283423 17.24C0.272411 17.4229 0.311893 17.6054 0.397555 17.7674C0.483217 17.9294 0.611765 18.0648 0.769154 18.1588C0.926543 18.2527 1.10672 18.3015 1.29 18.3ZM12 3.65001L20.8 16.3H3.2L12 3.65001ZM22.71 25.65H1.29C1.10637 25.6496 0.92618 25.6998 0.769188 25.7951C0.612197 25.8903 0.484465 26.027 0.399996 26.19C0.321169 26.3472 0.28521 26.5225 0.295744 26.6981C0.306279 26.8736 0.362934 27.0433 0.459996 27.19L11.18 42.59C11.2722 42.722 11.3948 42.8299 11.5376 42.9043C11.6804 42.9788 11.839 43.0176 12 43.0176C12.161 43.0176 12.3196 42.9788 12.4624 42.9043C12.6052 42.8299 12.7278 42.722 12.82 42.59L23.54 27.19C23.6371 27.0433 23.6937 26.8736 23.7043 26.6981C23.7148 26.5225 23.6788 26.3472 23.6 26.19C23.5128 26.0307 23.384 25.8981 23.2272 25.8065C23.0704 25.7149 22.8916 25.6677 22.71 25.67V25.65ZM12 40.33L3.2 27.67H20.8L12 40.33Z" fill="black"/>
</svg>
