<svg width="44" height="24" viewBox="0 0 44 24" fill="none" xmlns="http://www.w3.org/2000/svg">
<path d="M18.34 22.67V1.25003C18.3416 1.06675 18.2927 0.886572 18.1988 0.729183C18.1048 0.571794 17.9695 0.443248 17.8074 0.357586C17.6454 0.271924 17.4629 0.232442 17.28 0.243454C17.097 0.254466 16.9206 0.315546 16.77 0.420025L1.37002 11.14C1.23799 11.2322 1.13017 11.3549 1.05571 11.4976C0.981261 11.6404 0.942383 11.799 0.942383 11.96C0.942383 12.121 0.981261 12.2797 1.05571 12.4224C1.13017 12.5652 1.23799 12.6879 1.37002 12.78L16.77 23.5C16.9206 23.6045 17.097 23.6656 17.28 23.6766C17.4629 23.6876 17.6454 23.6481 17.8074 23.5625C17.9695 23.4768 18.1048 23.3483 18.1988 23.1909C18.2927 23.0335 18.3416 22.8533 18.34 22.67ZM3.69002 11.96L16.34 3.16003V20.76L3.69002 11.96ZM25.69 1.25003V22.67C25.6896 22.8537 25.7398 23.0338 25.8351 23.1908C25.9303 23.3478 26.067 23.4756 26.23 23.56C26.3873 23.6389 26.5625 23.6748 26.7381 23.6643C26.9136 23.6537 27.0833 23.5971 27.23 23.5L42.63 12.78C42.762 12.6879 42.8699 12.5652 42.9443 12.4224C43.0188 12.2797 43.0577 12.121 43.0577 11.96C43.0577 11.799 43.0188 11.6404 42.9443 11.4976C42.8699 11.3549 42.762 11.2322 42.63 11.14L27.23 0.420025C27.0833 0.322963 26.9136 0.266306 26.7381 0.255772C26.5625 0.245237 26.3873 0.2812 26.23 0.360027C26.0707 0.447179 25.9381 0.576068 25.8465 0.732864C25.7549 0.88966 25.7077 1.06844 25.71 1.25003H25.69ZM40.37 11.96L27.71 20.76V3.16003L40.37 11.96Z" fill="black"/>
</svg>
